<?xml version="1.0" encoding="UTF-8" standalone="no"?>
<!-- Created with Inkscape (http://www.inkscape.org/) -->

<svg
   xmlns:dc="http://purl.org/dc/elements/1.1/"
   xmlns:cc="http://creativecommons.org/ns#"
   xmlns:rdf="http://www.w3.org/1999/02/22-rdf-syntax-ns#"
   xmlns:svg="http://www.w3.org/2000/svg"
   xmlns="http://www.w3.org/2000/svg"
   xmlns:sodipodi="http://sodipodi.sourceforge.net/DTD/sodipodi-0.dtd"
   xmlns:inkscape="http://www.inkscape.org/namespaces/inkscape"
   width="744.09448819"
   height="1052.3622047"
   id="svg3890"
   version="1.1"
   inkscape:version="0.48.2 r9819"
   sodipodi:docname="AppIcon.svg"
   inkscape:export-filename="/Users/clarkbarry/Desktop/icon.png"
   inkscape:export-xdpi="307.10001"
   inkscape:export-ydpi="307.10001">
  <defs
     id="defs3892">
    <linearGradient
       id="linearGradient6008">
      <stop
         style="stop-color:#d45500;stop-opacity:1;"
         offset="0"
         id="stop6010" />
      <stop
         style="stop-color:#d45500;stop-opacity:0;"
         offset="1"
         id="stop6012" />
    </linearGradient>
    <clipPath
       clipPathUnits="userSpaceOnUse"
       id="clipPath3953">
      <rect
         style="fill:#323232;fill-opacity:1;stroke:#000000;stroke-width:0.1;stroke-miterlimit:4;stroke-opacity:1;stroke-dasharray:none"
         id="rect3955"
         width="300"
         height="300"
         x="222.04724"
         y="376.18109"
         ry="0" />
    </clipPath>
    <clipPath
       clipPathUnits="userSpaceOnUse"
       id="clipPath3980">
      <rect
         style="fill:#323232;fill-opacity:1;stroke:#000000;stroke-width:0.1;stroke-miterlimit:4;stroke-opacity:1;stroke-dasharray:none"
         id="rect3982"
         width="300"
         height="300"
         x="222.04724"
         y="376.18109" />
    </clipPath>
  </defs>
  <sodipodi:namedview
     id="base"
     pagecolor="#ffffff"
     bordercolor="#666666"
     borderopacity="1.0"
     inkscape:pageopacity="0.0"
     inkscape:pageshadow="2"
     inkscape:zoom="1"
     inkscape:cx="318.44256"
     inkscape:cy="542.31538"
     inkscape:document-units="px"
     inkscape:current-layer="layer1"
     showgrid="false"
     inkscape:window-width="1440"
     inkscape:window-height="768"
     inkscape:window-x="0"
     inkscape:window-y="0"
     inkscape:window-maximized="1" />
  <metadata
     id="metadata3895">
    <rdf:RDF>
      <cc:Work
         rdf:about="">
        <dc:format>image/svg+xml</dc:format>
        <dc:type
           rdf:resource="http://purl.org/dc/dcmitype/StillImage" />
        <dc:title></dc:title>
      </cc:Work>
    </rdf:RDF>
  </metadata>
  <g
     inkscape:label="Layer 1"
     inkscape:groupmode="layer"
     id="layer1">
    <rect
       style="fill:#c9c9c9;fill-opacity:1;stroke:#000000;stroke-width:0.10000000000000001;stroke-miterlimit:4;stroke-opacity:1;stroke-dasharray:none"
       id="rect3984"
       width="300"
       height="300"
       x="222.04724"
       y="376.18109"
       inkscape:export-filename="/Users/clarkbarry/Documents/iOS/RockClimbingApp/Icons/AppIcon.png"
       inkscape:export-xdpi="17.09"
       inkscape:export-ydpi="17.09" />
    <path
       style="fill:#000000"
       d="m 379.54724,793.18109 c -0.55,0 -0.98978,-1.9125 -0.97729,-4.25 0.0125,-2.3375 0.67548,-13.475 1.47332,-24.75 0.79783,-11.275 1.90705,-26.575 2.46491,-34 0.55787,-7.425 1.67565,-26.1 2.48397,-41.5 0.80832,-15.4 2.42151,-45.55 3.58486,-67 l 2.11518,-39 -2.90542,-6.5 c -1.59799,-3.575 -3.73297,-9.65 -4.74441,-13.5 -1.01144,-3.85 -2.62297,-8.14019 -3.58117,-9.53376 -0.95821,-1.39357 -2.04169,-4.13023 -2.40774,-6.08146 -0.43858,-2.3378 -1.57623,-4.09787 -3.33588,-5.16095 -1.46868,-0.8873 -4.61441,-3.46703 -6.99051,-5.73275 -3.54033,-3.37585 -4.58428,-3.9003 -5.7832,-2.90528 -0.80466,0.66781 -2.88198,1.2592 -4.61625,1.3142 -2.61725,0.083 -3.29367,0.60994 -3.97942,3.1 -0.45441,1.65 -1.68236,4.01523 -2.72878,5.25607 -1.41801,1.68147 -2.79608,2.19085 -5.41077,2 -2.93549,-0.21427 -3.59787,-0.70321 -4.0576,-2.99513 -0.30219,-1.50649 -0.30764,-3.36914 -0.0121,-4.13924 0.3032,-0.79012 -0.9915,-2.88493 -2.97157,-4.80794 -2.68975,-2.61226 -3.65941,-4.51781 -4.15374,-8.1628 -0.46408,-3.42204 -0.18773,-5.71835 0.98579,-8.19137 1.23939,-2.61182 1.37233,-3.91903 0.55407,-5.44797 -0.59215,-1.10639 -1.40153,-2.01162 -1.79864,-2.01162 -0.39711,0 -0.56097,2.025 -0.36412,4.5 0.19843,2.49497 -0.0756,4.5 -0.61499,4.5 -0.53509,0 -1.34653,-1.9125 -1.80321,-4.25 l -0.83032,-4.25 -0.35498,4.25 c -0.19524,2.3375 -0.77911,4.25 -1.29749,4.25 -0.51837,0 -1.01452,-1.9125 -1.10254,-4.25 -0.13872,-3.6841 -0.21374,-3.81726 -0.56336,-1 -0.22182,1.7875 -0.82481,3.25 -1.33996,3.25 -0.51515,0 -0.93664,-1.69987 -0.93664,-3.77749 0,-2.07763 -0.75078,-4.89013 -1.66841,-6.25 -0.91762,-1.35988 -1.76936,-2.61175 -1.89275,-2.78193 -0.12339,-0.17018 -1.95345,0.61732 -4.06679,1.75 -2.11334,1.13268 -5.69185,2.05942 -7.95225,2.05942 -2.66815,0 -4.64326,-0.61388 -5.6305,-1.75 -0.83638,-0.9625 -1.86548,-3.1 -2.28689,-4.75 -0.42141,-1.65 -0.67867,-7.07948 -0.57168,-12.0655 0.11656,-5.43216 -0.29533,-10.1406 -1.02769,-11.74796 -0.96201,-2.11139 -0.9628,-3.90702 -0.004,-8.4345 0.67018,-3.16362 1.7138,-7.0311 2.31916,-8.5944 0.87277,-2.25388 0.80881,-3.02711 -0.30892,-3.73469 -0.77527,-0.49078 -2.66153,-0.89922 -4.1917,-0.90764 -1.53016,-0.008 -4.31585,-0.65615 -6.19042,-1.43939 -2.46582,-1.03028 -3.97783,-2.67427 -5.46788,-5.94514 -1.13247,-2.48658 -2.05928,-5.81859 -2.05928,-7.40447 0,-1.58588 1.36436,-4.94322 3.0319,-7.46076 1.66755,-2.51754 4.12672,-5.29469 5.46482,-6.17144 1.3381,-0.87676 3.954,-1.59411 5.81311,-1.59411 2.1102,0 4.06023,0.75143 5.19017,2 1.1948,1.32024 3.07997,2 5.54658,2 3.15172,0 3.83482,0.39132 4.36406,2.5 0.34511,1.375 1.08771,2.5 1.65023,2.5 0.56251,0 1.98532,0.89677 3.16179,1.99281 l 2.13903,1.99281 -2.10637,4.25719 c -1.3878,2.80489 -1.91542,5.28061 -1.54665,7.25719 0.30785,1.65 1.00443,3.5625 1.54797,4.25 0.54354,0.6875 2.63302,1.25 4.6433,1.25 2.01028,0 4.54268,0.56674 5.62755,1.25942 1.08488,0.69267 2.64751,1.22301 3.47251,1.17852 0.825,-0.0445 5.68728,-0.43596 10.80507,-0.86993 8.69905,-0.73766 9.2852,-0.92676 9,-2.9035 -0.16779,-1.16294 -1.35545,-2.63609 -2.63925,-3.27366 -1.28381,-0.63757 -2.83631,-1.66134 -3.45,-2.27503 -0.6137,-0.6137 -1.93193,-1.11582 -2.92939,-1.11582 -0.99746,0 -2.78608,-0.5625 -3.9747,-1.25 -1.18863,-0.6875 -2.98252,-1.91251 -3.98644,-2.72224 -1.00391,-0.80973 -1.82529,-1.96879 -1.82529,-2.57569 0,-0.60689 -1.0125,-2.04852 -2.25,-3.20363 -1.2375,-1.1551 -3.4875,-2.40732 -5,-2.78272 -1.5125,-0.37539 -2.7513,-0.97125 -2.75289,-1.32413 -0.002,-0.35287 -3.03909,-4.338 -6.75,-8.85583 -3.71091,-4.51783 -8.65571,-9.58033 -10.98845,-11.25 -2.33274,-1.66967 -4.53422,-3.03576 -4.89219,-3.03576 -0.35796,0 -3.06186,-2.0598 -6.00866,-4.57732 -2.94679,-2.51753 -5.35781,-5.41597 -5.35781,-6.44099 0,-1.02501 -0.45682,-2.14599 -1.01515,-2.49105 -0.55833,-0.34507 -1.70351,-2.27488 -2.54484,-4.28846 -0.84133,-2.01359 -2.87602,-4.97735 -4.52153,-6.58614 -1.64551,-1.60879 -2.88607,-3.64305 -2.75679,-4.52056 0.12929,-0.87751 -0.52921,-3.03563 -1.46331,-4.79582 -0.93411,-1.76019 -1.69838,-4.24768 -1.69838,-5.52776 0,-1.28008 -0.7875,-3.03238 -1.75,-3.89401 -0.9625,-0.86162 -2.425,-2.61187 -3.25,-3.88944 -0.825,-1.27757 -3.18229,-3.93511 -5.23841,-5.90565 -2.05613,-1.97054 -5.51263,-5.1578 -7.68112,-7.0828 -2.16848,-1.925 -4.67022,-5.3 -5.55941,-7.5 -1.01583,-2.51333 -3.82198,-5.85834 -7.55016,-9 -3.88309,-3.2722 -5.93992,-5.75711 -5.95218,-7.19098 -0.0103,-1.20504 0.43128,-2.4691 0.98128,-2.80902 0.55,-0.33992 1,-1.22874 1,-1.97516 0,-0.74643 -1.82098,-3.30737 -4.04663,-5.69099 -3.8808,-4.15626 -4.03492,-4.57225 -3.76117,-10.15163 0.18935,-3.85924 0.87834,-6.45419 2.04662,-7.70819 0.96865,-1.03972 1.76118,-2.097 1.76118,-2.34951 0,-0.25251 -2.04622,-1.24057 -4.54717,-2.19568 -2.50094,-0.95512 -4.97594,-2.53776 -5.5,-3.51697 -0.52405,-0.97921 -0.95283,-2.25997 -0.95283,-2.84613 0,-0.58616 0.65351,-1.06574 1.45225,-1.06574 1.01772,0 0.7185,-0.79173 -1,-2.64602 -1.34874,-1.45532 -2.54346,-4.04282 -2.65494,-5.75 -0.11148,-1.70719 -0.25119,-4.67898 -0.31047,-6.60398 -0.0897,-2.91192 -0.51767,-3.55811 -2.54731,-3.84582 -1.34174,-0.1902 -3.00203,-0.8078 -3.68953,-1.37244 -0.6875,-0.56465 -1.25,-2.32153 -1.25,-3.90418 l 0,-2.87756 178.5,0 178.5,0 0,267 0,267 -85.2,0 c -51.32281,0 -84.82226,-0.36249 -84.25,-0.91164 0.5225,-0.5014 2.97298,-1.30274 5.4455,-1.78074 3.89305,-0.75263 4.56312,-1.25383 5,-3.73995 0.36742,-2.09081 1.16728,-2.97167 2.94378,-3.24188 1.3416,-0.20405 2.6304,-0.56214 2.864,-0.79574 0.2336,-0.2336 -0.55201,-1.66645 -1.7458,-3.18411 -1.4497,-1.84299 -1.97567,-3.53576 -1.58378,-5.09719 0.35052,-1.39656 -0.13,-3.55291 -1.19347,-5.35576 -0.9957,-1.68796 -3.62481,-3.83447 -5.96589,-4.87078 -4.10084,-1.81528 -4.18424,-1.95081 -4.11515,-6.68752 0.0388,-2.65908 -0.26763,-6.91839 -0.68091,-9.46514 -0.57558,-3.54682 -0.28869,-5.88705 1.22593,-10 1.08755,-2.95325 1.87181,-6.26955 1.74281,-7.36955 -0.12901,-1.1 -0.8204,-4.08406 -1.53643,-6.63126 -1.0431,-3.71066 -1.06545,-6.39416 -0.11244,-13.5 0.65419,-4.8778 1.65965,-11.56874 2.23435,-14.86874 0.5747,-3.3 0.77782,-7.43732 0.45139,-9.19405 -0.32644,-1.75673 0.14583,-6.25673 1.04948,-10 0.90365,-3.74327 2.04048,-9.95595 2.5263,-13.80595 0.48581,-3.85 1.36157,-12.85 1.94612,-20 0.58454,-7.15 1.04416,-13.675 1.02137,-14.5 -0.0228,-0.825 -0.38472,-6.45 -0.8043,-12.5 -0.66575,-9.59971 -0.98563,-10.98232 -2.51286,-10.86111 -0.9625,0.0764 -1.75,-0.52187 -1.75,-1.32946 0,-1.08895 -0.72556,-1.30898 -2.80809,-0.85158 -2.52743,0.55512 -3.17023,0.0883 -6.43135,-4.67055 -1.9928,-2.90801 -3.92901,-6.52905 -4.30269,-8.04675 -0.37369,-1.5177 -1.01925,-2.96947 -1.43458,-3.22616 -0.41534,-0.25669 -1.05363,5.26006 -1.41843,12.25945 -0.3648,6.99939 -1.09664,19.92616 -1.62631,28.72616 -0.52967,8.8 -1.64914,28.375 -2.4877,43.5 -0.83856,15.125 -1.97169,34.7 -2.51805,43.5 -0.54637,8.8 -1.66251,28.825 -2.48032,44.5 -0.81781,15.675 -1.48818,29.7375 -1.4897,31.25 -0.002,1.5125 -0.45278,2.75 -1.00278,2.75 z m 34.10699,-217 c 1.04115,0 1.89301,-0.675 1.89301,-1.5 0,-0.92825 -0.94096,-1.5 -2.46862,-1.5 -1.78348,0 -2.30886,0.41631 -1.89301,1.5 0.31659,0.825 1.42746,1.5 2.46862,1.5 z m -56.66601,-43 c 1.34254,0 2.7191,-0.45 3.05902,-1 0.36058,-0.58342 -0.65628,-1 -2.44098,-1 -1.68246,0 -3.05902,0.45 -3.05902,1 0,0.55 1.09844,1 2.44098,1 z m 59.28787,-11.39551 c 0.19185,-0.19186 -0.68115,-2.0482 -1.94001,-4.1252 -1.25886,-2.07701 -3.64643,-5.17204 -5.30572,-6.87784 -1.65928,-1.7058 -8.09211,-7.81994 -14.29517,-13.58698 -6.20306,-5.76703 -11.93296,-10.8519 -12.73312,-11.29969 -0.80016,-0.44779 -1.45483,-0.58346 -1.45483,-0.30149 0,0.28197 0.95308,2.89183 2.11796,5.79969 1.16487,2.90786 2.5349,6.74546 3.04451,8.52799 0.72896,2.54981 2.04364,3.78796 6.16473,5.80586 2.881,1.41068 9.47147,5.67924 14.6455,9.48568 5.17403,3.80644 9.56429,6.76383 9.75615,6.57198 z m -32.5036,-18.66788 c 1.4765,0.0542 1.57216,-0.33311 0.66348,-2.68661 -0.58397,-1.5125 -2.15214,-5.675 -3.48481,-9.25 -1.33268,-3.575 -2.94479,-7.5125 -3.58247,-8.75 -0.63767,-1.2375 -1.73293,-2.25 -2.43389,-2.25 -0.70097,0 -2.07195,-1.35 -3.04663,-3 -0.97468,-1.65 -2.47491,-3 -3.33385,-3 -0.85894,0 -2.67442,-1.25923 -4.0344,-2.79828 -1.35997,-1.53906 -2.98246,-3.10803 -3.60553,-3.48662 -0.79103,-0.48064 -1.04453,0.62182 -0.84013,3.65367 0.161,2.38811 1.44973,6.62524 2.86384,9.41585 1.41411,2.79061 3.02991,5.3574 3.59067,5.70397 0.56076,0.34656 1.51537,2.59912 2.12134,5.00568 0.82084,3.25983 2.0319,5.01681 4.74946,6.89038 2.00622,1.38315 4.77267,2.95892 6.14767,3.5017 1.375,0.54278 3.27636,1.0154 4.22525,1.05026 z m -28.22525,-17.23616 c 1.14168,-0.16871 1.55773,-1.89128 1.74166,-7.21105 0.1592,-4.60478 -0.21022,-7.57365 -1.08279,-8.70185 -1.23866,-1.60154 -1.8841,-1.60968 -9.9664,-0.12562 l -8.64196,1.58682 1.72474,2.16888 c 0.94861,1.19288 3.52475,3.74286 5.72475,5.66661 2.2,1.92375 5.125,4.24926 6.5,5.1678 1.375,0.91854 3.175,1.57033 4,1.44841 z m 5.53518,-1.70045 c 1.27224,0 1.33468,-0.38539 0.36455,-2.25 -0.64385,-1.2375 -1.33468,-2.4375 -1.53518,-2.66667 -0.2005,-0.22916 -0.36455,0.78334 -0.36455,2.25 0,1.73087 0.53873,2.66667 1.53518,2.66667 z"
       id="path3976"
       inkscape:connector-curvature="0"
       clip-path="url(#clipPath3980)" />
  </g>
</svg>
